<?xml version="1.0" encoding="UTF-8"?><svg id="Layer_2" xmlns="http://www.w3.org/2000/svg" viewBox="0 0 1898.64 2049.76"><defs><style>.cls-1,.cls-2{fill:#9370db;}.cls-3{fill:#343434;}.cls-4{opacity:.3;}.cls-2{fill-rule:evenodd;}</style></defs><g id="Layer_1-2"><g><g><path class="cls-2" d="M1148.09,171.07c3.44-19.07,3.65-33.86-1.67-40.32-5.32-6.46-16.15-4.58-31.46,12.92-15.31,17.5-35.11,50.64-47.93,87-12.81,36.36-18.65,75.95-17.81,120.54,.83,44.59,8.34,94.19,16.46,133.78,8.13,39.59,16.88,69.18,26.57,90.34,9.69,21.15,20.31,33.86,34.07,41.88,13.75,8.03,30.63,11.36,48.13,7.81,17.5-3.54,35.63-13.96,42.72-30.42,7.08-16.46,3.13-38.97-9.69-71.68-12.81-32.72-34.48-75.64-48.65-125.03-14.17-49.39-20.84-105.23-20.84-144.82s6.67-62.93,10.1-82"/><path class="cls-2" d="M1419.08,666.81c-.42-31.98-13.13-42.19-29.59-47.93-16.46-5.73-36.67-6.98-61.57-.31-24.9,6.67-54.49,21.26-84.29,66.89-29.8,45.63-59.81,122.32-94.81,188.79-35.01,66.47-75.01,122.73-154.92,176.18-79.91,53.45-199.73,104.09-262.87,135.34-63.14,31.26-69.6,43.13-63.66,48.34,5.94,5.21,24.28,3.75,89.39-10.11,65.12-13.85,177.02-40.11,267.14-77.41,90.12-37.31,158.47-85.64,216.81-144.2,58.35-58.55,106.69-127.32,136.8-188.58,30.11-61.26,41.99-115.02,41.58-147.01"/><path class="cls-2" d="M375.31,207.07c-7.73,46.08-17.57,116.79-9.45,200.24,8.13,83.45,34.22,179.66,67.27,251.93,33.05,72.27,73.06,120.62,119.27,160.79,46.21,40.17,98.63,72.16,143.43,87.17,44.8,15,81.99,13.01,104.33,3.89,22.34-9.12,29.84-25.37,23.59-57.47-6.25-32.09-26.26-80.01-84.81-138.78-58.55-58.76-155.66-128.36-216.71-211.3-61.06-82.94-86.06-179.21-91.58-242.45-5.53-63.24-17.36-25.97-14.55-44.93,2.82-18.96-1.21-20.77-11-24-9.8-3.23-10.56-56.35-19-45-8.44,11.36-3.06,13.81-10.79,59.9"/><path class="cls-3" d="M918.07,683.41c5.15,181.33-12.72,362.17-278.68,533.69,447.33-69.44,579.96-303.39,663.28-450.39,18.57-32.76,34.81-61.4,51.68-83.74,22.56-29.86,45.47-49.26,73.5-53.67-15.38-20.17-30.52-32.96-44.88-41-20.32-11.38-39.56-13.29-55.45-13.41-32.55-.23-68.22,22.87-108.39,48.9-55.45,35.93-118.66,76.87-202.55,79.26-5.36,.15-10.62,.07-15.78-.24-25.24-1.52-53.13-8.32-82.73-19.4m285.92-97.32c-129.63-237.02-85.39-410.95-38.53-503.64-264.78,174.03-257.14,359.46-249.45,545.35l.51,12.54c31.42,13.07,60.74,21.08,86.62,22.63,4.43,.26,8.55,.35,12.34,.24,72.65-2.07,130.85-39.77,181.91-72.85l6.59-4.26Zm-350.5,321.48c26.36-79.83,26.93-160.6,24.11-241.42-88.38-42-187.15-115.3-273.94-196.44-92.5-86.47-172.08-182.75-211.81-260.53-20.02,201.7-15.72,675.55,461.65,698.4Zm691.24-232.67c8.8,6.65,10.55,19.17,3.91,27.98-6.65,8.8-19.17,10.55-27.98,3.91-68.65-51.86-102.75-41.68-134.43,.27-15.55,20.59-31.09,48-48.87,79.36-92.83,163.77-244.3,430.98-789.34,482.13-10.96,.99-20.65-7.09-21.65-18.05-.74-8.2,3.59-15.69,10.41-19.36l-.02-.02c171.43-92.12,258.41-187.45,301.58-284.4C200.55,905.71,364.83,114.16,365.29,111.85h.02c1.87-9.66,10.66-16.69,20.76-16.1,11,.65,19.4,10.09,18.75,21.1-.12,1.92-.15,3.71-.1,5.36,2.01,70.53,101.69,201.95,226.12,318.27,78.41,73.3,166.12,139.86,244.98,180.76-8.7-211.61-12.79-422.5,345.74-618.8,9.67-5.26,21.77-1.69,27.04,7.97,4.24,7.79,2.75,17.17-3.06,23.28-.54,.59-190.82,194.33-7.7,531.3,30.04-17.58,58.96-30.15,89.83-29.93,21.16,.15,46.91,2.78,74.83,18.41,25.51,14.28,52.38,39.36,78.18,83.4,18.88,7.41,39.99,19.85,64.06,38.04Z"/></g><g><g class="cls-4"><path class="cls-1" d="M24,1397.77H91.77l55.78,298.71,52.65-298.71h69.33l-84.97,422.27H108.97L24,1397.77Z"/><path class="cls-1" d="M419.16,1397.77h76.11v422.27h-76.11v-422.27Z"/><path class="cls-1" d="M657.92,1687.62v-158.48c0-85.5,31.28-136.06,121.99-136.06s121.47,50.57,121.47,136.06v158.48c0,84.97-31.28,138.15-121.47,138.15s-121.99-52.65-121.99-138.15Zm165.26,18.25v-194.45c0-35.45-5.73-62.04-43.27-62.04s-43.79,26.59-43.79,62.04v194.45c0,34.93,5.73,63.08,43.79,63.08s43.27-28.15,43.27-63.08Z"/><path class="cls-1" d="M1062.46,1397.77h76.63v369.61h102.7v52.65h-179.33v-422.27Z"/><path class="cls-1" d="M1386.19,1397.77h177.25v54.22h-100.61v121.47h79.24v53.7h-79.24v140.23h101.66v52.65h-178.29v-422.27Z"/><path class="cls-1" d="M1755.8,1454.59h-67.25v-56.82h210.09v56.82h-65.69v365.44h-77.15v-365.44Z"/></g><g><path class="cls-1" d="M0,1373.77H67.77l55.78,298.71,52.65-298.71h69.33l-84.97,422.27H84.97L0,1373.77Z"/><path class="cls-1" d="M395.16,1373.77h76.11v422.27h-76.11v-422.27Z"/><path class="cls-1" d="M633.92,1663.62v-158.48c0-85.5,31.28-136.06,121.99-136.06s121.47,50.57,121.47,136.06v158.48c0,84.97-31.28,138.15-121.47,138.15s-121.99-52.65-121.99-138.15Zm165.26,18.25v-194.45c0-35.45-5.73-62.04-43.27-62.04s-43.79,26.59-43.79,62.04v194.45c0,34.93,5.73,63.08,43.79,63.08s43.27-28.15,43.27-63.08Z"/><path class="cls-1" d="M1038.46,1373.77h76.63v369.61h102.7v52.65h-179.33v-422.27Z"/><path class="cls-1" d="M1362.19,1373.77h177.25v54.22h-100.61v121.47h79.24v53.7h-79.24v140.23h101.66v52.65h-178.29v-422.27Z"/><path class="cls-1" d="M1731.8,1430.59h-67.25v-56.82h210.09v56.82h-65.69v365.44h-77.15v-365.44Z"/><path class="cls-1" d="M417.8,1937.98h-20.25v-17.11h63.27v17.11h-19.78v110.06h-23.24v-110.06Z"/><path class="cls-1" d="M503.83,1920.87h30.61c25.43,0,39.88,8.16,39.88,33.75,0,15.23-3.77,25.91-15.7,30.77l17.74,62.64h-23.24l-15.23-58.25h-10.99v58.25h-23.08v-127.17Zm30.46,54.48c13.35,0,18.21-5.81,18.21-19.47,0-12.87-3.61-19.15-16.96-19.15h-8.64v38.62h7.38Z"/><path class="cls-1" d="M642.3,1920.87h24.81l25.43,127.17h-21.51l-5.02-29.36h-22.14l-5.18,29.36h-21.82l25.43-127.17Zm21.19,83.05l-8.63-53.38-8.63,53.38h17.27Z"/><path class="cls-1" d="M736.66,1920.87h16.17l30.93,72.53v-72.53h19.15v127.17h-15.39l-31.09-75.99v75.99h-19.78v-127.17Z"/><path class="cls-1" d="M850.48,2010.98l19.94-3.92c.63,15.07,4.24,24.81,14.44,24.81,7.38,0,10.52-5.02,10.52-11.93,0-10.99-5.65-17.11-13.97-24.33l-16.01-13.97c-9.11-7.85-14.76-16.64-14.76-30.77,0-20.1,12.56-31.4,32.81-31.4,23.86,0,30.61,16.01,31.87,34.54l-19.94,3.45c-.47-11.93-2.2-20.88-12.4-20.88-6.91,0-10.68,5.18-10.68,11.93,0,8.63,3.61,13.34,10.36,19.15l15.86,13.97c10.36,8.95,19,20.1,19,36.89,0,18.37-12.87,31.24-31.87,31.24-23.24,0-34.23-13.5-35.17-38.78Z"/><path class="cls-1" d="M960.54,2006.12v-42.7c0-27.32,8.32-43.96,36.27-43.96,26.06,0,35.17,13.5,35.17,37.05v6.59h-22.14v-7.22c0-12.25-1.26-19.47-12.72-19.47-12.25,0-13.19,9.89-13.19,21.51v53.22c0,13.19,2.51,21.51,13.82,21.51s13.97-8.79,13.97-22.61v-11.93h-13.66v-14.6h34.54v64.53h-15.07l-1.57-12.4c-3.45,8.16-9.73,14.13-21.51,14.13-25.12,0-33.91-16.8-33.91-43.64Z"/><path class="cls-1" d="M1081.74,1920.87h23.08v111.31h30.93v15.86h-54.01v-127.17Z"/><path class="cls-1" d="M1175.63,2008.16v-47.73c0-25.75,9.42-40.98,36.74-40.98s36.58,15.23,36.58,40.98v47.73c0,25.59-9.42,41.6-36.58,41.6s-36.74-15.86-36.74-41.6Zm49.77,5.49v-58.56c0-10.68-1.73-18.68-13.03-18.68s-13.19,8.01-13.19,18.68v58.56c0,10.52,1.73,19,13.19,19s13.03-8.48,13.03-19Z"/><path class="cls-1" d="M1297.46,1920.87h31.4c22.29,0,37.21,7.54,37.21,32.66,0,15.54-6.44,24.18-18.37,26.06,14.91,2.83,21.98,13.5,21.98,31.4,0,24.33-11.93,37.05-35.48,37.05h-36.74v-127.17Zm31.08,51.97c13.82,0,17.43-6.12,17.43-19,0-13.5-6.59-16.8-20.72-16.8h-4.71v35.79h8.01Zm.94,58.87c14.13,0,18.05-6.59,18.05-20.88,0-15.07-5.02-21.98-18.84-21.98h-8.16v42.86h8.95Z"/><path class="cls-1" d="M1416.3,1920.87h53.38v16.33h-30.3v36.58h23.86v16.17h-23.86v42.23h30.62v15.86h-53.69v-127.17Z"/></g></g></g></g></svg>